<svg width="48" height="48" viewBox="0 0 48 48" fill="none" xmlns="http://www.w3.org/2000/svg">
<rect width="48" height="48" fill="#1E1E1E"/>
<g id="13">
<rect width="48" height="48" fill="#EF897A"/>
<g id="Group 39866">
<path id="Subtract" d="M15.0056 28.8513C15.0019 28.9557 15 29.0606 15 29.1659C15 34.0449 19.0294 38 24 38C28.9706 38 33 34.0449 33 29.1659C33 29.0606 32.9981 28.9557 32.9944 28.8513H28.8453C28.8535 28.965 28.8577 29.0799 28.8577 29.1957C28.8577 31.8455 26.6693 33.9936 23.9697 33.9936C21.2701 33.9936 19.0817 31.8455 19.0817 29.1957C19.0817 29.0799 19.0859 28.965 19.0941 28.8513H15.0056Z" fill="#FFEDEB"/>
<path id="Union" fill-rule="evenodd" clip-rule="evenodd" d="M33 19.2238C33 24.318 28.9706 28.4476 24 28.4476C19.0294 28.4476 15 24.318 15 19.2238C15 14.1296 19.0294 10 24 10C24.1732 10 24.3452 10.005 24.516 10.0149H32.6525V14.2447H31.5774C32.4778 15.681 33 17.3899 33 19.2238ZM28.8577 19.2549C28.8577 22.0216 26.6693 24.2644 23.9697 24.2644C21.2701 24.2644 19.0817 22.0216 19.0817 19.2549C19.0817 16.4882 21.2701 14.2453 23.9697 14.2453C26.6693 14.2453 28.8577 16.4882 28.8577 19.2549Z" fill="#FFEDEB"/>
</g>
</g>
</svg>
